<svg version="1.1" xmlns="http://www.w3.org/2000/svg" viewBox="0 0 562.6089363459679 205.0450452024014" width="1125.2178726919358" height="410.0900904048028">
  <!-- svg-source:excalidraw -->
  
  <defs>
    <style class="style-fonts">
      @font-face {
        font-family: "Virgil";
        src: url("https://excalidraw.com/Virgil.woff2");
      }
      @font-face {
        font-family: "Cascadia";
        src: url("https://excalidraw.com/Cascadia.woff2");
      }
      @font-face {
        font-family: "Assistant";
        src: url("https://excalidraw.com/Assistant-Regular.woff2");
      }
    </style>
    
  </defs>
  <g stroke-linecap="round" transform="translate(138.99588533765655 48.01015225903177) rotate(0 20.698154666493878 21.91569317628762)"><path d="M0.64 -0.73 C8.25 1.41, 20.91 -0.92, 42.4 0.35 M0.06 -0.3 C12.32 -0.25, 26.82 -0.74, 41.05 0.69 M41.75 1.64 C42.56 13.51, 40.62 25.78, 41.4 43.04 M41.58 -0.28 C41.19 11.89, 41.16 23.24, 40.66 42.9 M41.84 42.45 C25.41 43.75, 12 45.1, 1.71 44.56 M41.76 44.71 C24.37 44.6, 8.84 44.5, 0.52 44.65 M0.96 42.31 C-1.23 31.02, 1.36 22.57, 1.61 -1.56 M-0.4 44.56 C-0.38 31.68, 0.16 19.54, 0.4 0.4" stroke="#000000" stroke-width="2" fill="none"></path></g><g stroke-linecap="round" transform="translate(180.39219467063594 48.01015225903177) rotate(0 20.698154666493878 21.91569317628762)"><path d="M-0.73 -1.24 C13.69 1.8, 23.35 0.87, 41.74 0.41 M-0.3 -0.95 C13 0.27, 26.01 -0.37, 42.09 0.03 M43.04 0.94 C41.87 14.39, 40.86 30.77, 40.61 43.01 M41.12 -0.09 C41.96 11.87, 41.97 23.23, 40.46 44.48 M40.01 42.96 C32.78 44.76, 25.72 45.63, 0.73 45.69 M42.28 43.07 C29.14 43.96, 16.43 44.5, 0.81 43.48 M-1.53 43.01 C-1.28 28.37, 1.88 11, -1.56 -0.23 M0.73 43.68 C0.49 28.83, 0.99 13.47, 0.4 0.3" stroke="#000000" stroke-width="2" fill="none"></path></g><g stroke-linecap="round" transform="translate(221.84430785199038 48.01015225903177) rotate(0 20.698154666493878 21.91569317628762)"><path d="M-1.24 1.71 C17.35 -0.47, 31.83 0.5, 41.8 0.52 M-0.95 -0.5 C10.15 -0.87, 19.36 0.82, 41.43 0.51 M42.33 0.23 C40.48 14.79, 41.47 30.35, 40.58 43.3 M41.31 0.53 C41.36 14.02, 40.74 26.03, 42.05 42.86 M40.53 43.63 C28.6 44.69, 15.83 44.27, 1.86 43.93 M40.63 44.19 C24.92 44.46, 9.01 45.01, -0.35 44.76 M-0.83 42.63 C1.55 31.83, 1.4 14.34, -0.23 1.02 M-0.16 44.33 C0.56 31.62, 0.57 17.82, 0.3 -0.35" stroke="#000000" stroke-width="2" fill="none"></path></g><g stroke-linecap="round" transform="translate(263.2406171849889 48.01015225903177) rotate(0 20.698154666493878 21.91569317628762)"><path d="M1.71 1.94 C13.13 1.26, 27.85 0.66, 41.92 -1.24 M-0.5 0.29 C11.69 0.05, 26.06 0.42, 41.91 0.55 M41.63 -1 C40.98 13.92, 40.97 27.02, 40.86 43.98 M41.93 -0.11 C41.81 13.21, 40.34 28.54, 40.43 44.13 M41.19 44.67 C29.2 45.36, 15.44 45.51, 0.1 45.78 M41.76 43.81 C27.73 44.04, 14.35 43.16, 0.93 44.02 M-1.2 45.59 C2.3 30.18, -1.22 13.08, 1.02 0.02 M0.49 44.22 C0.68 32.82, 0.08 21.32, -0.35 -0.03" stroke="#000000" stroke-width="2" fill="none"></path></g><g stroke-linecap="round" transform="translate(305.04277268789974 48.01015225903177) rotate(0 20.698154666493878 21.91569317628762)"><path d="M1.94 -0.62 C11.92 -0.01, 22.23 0.17, 40.16 0.13 M0.29 -0.99 C10.85 0.9, 22.42 0.72, 41.95 0.18 M40.4 -0.78 C41.6 15.96, 40.78 32.96, 41.55 44.19 M41.28 0.54 C40.62 11, 42.01 22.9, 41.69 44.05 M42.24 44.97 C33.55 44.51, 24.14 43.88, 1.95 44.56 M41.37 44.09 C25.86 44.8, 8.93 44.91, 0.19 44.31 M1.76 45.79 C1.79 32.47, -0.05 25.24, 0.02 -0.8 M0.38 44.83 C0.47 27.9, 0.37 10.81, -0.03 -0.27" stroke="#000000" stroke-width="2" fill="none"></path></g><g stroke-linecap="round" transform="translate(346.4390820208919 48.01015225903177) rotate(0 20.69815466649385 21.91569317628762)"><path d="M-0.62 1 C10.21 0.01, 20.24 -1.64, 41.52 -0.59 M-0.99 -0.34 C9.19 -0.09, 17.51 0.43, 41.57 0.82 M40.62 0 C40.66 14.39, 40.91 30.56, 41.76 43.28 M41.93 -0.73 C40.69 13.42, 40.66 25.83, 41.62 43.14 M42.54 45.54 C31.5 45.86, 20.25 45.96, 0.73 45.59 M41.66 44.35 C32.96 43.47, 23.82 44.01, 0.48 43.07 M1.96 45.44 C-1.29 32.26, 1.28 21.18, -0.8 1.45 M1 44.23 C0.18 31.67, -0.57 18.87, -0.27 -0.03" stroke="#000000" stroke-width="2" fill="none"></path></g><g stroke-linecap="round" transform="translate(387.8353913538822 48.01015225903177) rotate(0 20.69815466649385 21.91569317628762)"><path d="M1 0.35 C16.36 0.65, 30.66 0.25, 40.8 -1.89 M-0.34 0.69 C10.36 0.92, 21.22 0.59, 42.22 0.47 M41.4 -0.79 C40.36 13.12, 41.33 27.66, 40.84 43.66 M40.66 -0.94 C42 14.52, 41.64 31.2, 40.71 43.4 M43.11 44.56 C31.26 44.16, 19.35 44.8, 1.76 42.3 M41.92 44.65 C27.12 44.87, 13.74 44.42, -0.76 43.42 M1.61 42.27 C-0.62 34.33, -0.36 22, 1.45 -0.31 M0.4 44.23 C0.13 28.16, -0.2 12.93, -0.03 -0.01" stroke="#000000" stroke-width="2" fill="none"></path></g><g stroke-linecap="round" transform="translate(429.2317006868652 48.01015225903177) rotate(0 20.69815466649385 21.91569317628762)"><path d="M0.35 0.41 C16.95 -1.45, 32.99 -0.8, 39.5 -1.01 M0.69 0.03 C14.15 0.69, 27.46 0.96, 41.87 0.11 M40.61 -0.82 C40.69 11.11, 41.59 21.37, 41.22 44.9 M40.46 0.65 C40.66 12.94, 41.85 24.6, 40.96 43.73 M42.12 45.69 C27.33 46.14, 13.81 45.94, -1.53 44.56 M42.21 43.48 C30.01 44.23, 17.25 43.28, -0.41 43.23 M-1.56 43.6 C0.59 26.84, -1.23 11.26, -0.31 0.99 M0.4 44.13 C-0.79 28.97, -0.7 14.14, -0.01 -0.24" stroke="#000000" stroke-width="2" fill="none"></path></g><g stroke-linecap="round" transform="translate(469.81631767999534 48.01015225903177) rotate(0 20.69815466649385 21.91569317628762)"><path d="M0.41 0.52 C9.89 0.05, 21.68 -1.96, 40.39 0.59 M0.03 0.51 C8.86 -0.11, 17.44 0.18, 41.51 -0.5 M40.58 -0.53 C41.55 11.81, 40.84 22.71, 42.46 43.6 M42.05 -0.97 C41.37 15.72, 40.38 30.57, 41.29 44.25 M43.25 43.93 C28.56 44.71, 13.58 42.45, 0.73 43.78 M41.04 44.76 C28.07 44.65, 13.62 43.76, -0.6 44.71 M-0.23 44.85 C-0.33 25.59, 1.1 8.62, 0.99 0.77 M0.3 43.48 C-0.2 26.05, -0.2 8.79, -0.24 -0.64" stroke="#000000" stroke-width="2" fill="none"></path></g><g stroke-linecap="round" transform="translate(511.2126270129802 48.01015225903177) rotate(0 20.69815466649385 21.91569317628762)"><path d="M0.52 -1.24 C14.63 -0.68, 27.1 -1.09, 41.99 -1.99 M0.51 0.55 C11.17 0.81, 22.46 0.1, 40.9 -0.39 M40.86 0.15 C41.59 12.59, 41.05 27.36, 41.17 44.9 M40.43 0.29 C41.21 9.24, 40.55 19.76, 41.82 44.4 M41.49 45.78 C26.17 45.97, 7.95 44.94, -0.05 44.36 M42.33 44.02 C27.3 42.92, 11.83 43.09, 0.88 44.81 M1.02 43.86 C-0.45 28.6, 0.03 11.46, 0.77 1.99 M-0.35 43.8 C-0.44 28.91, -0.19 13.81, -0.64 0.91" stroke="#000000" stroke-width="2" fill="none"></path></g><g transform="translate(150.767606181249 98.71582082837858) rotate(0 5.503997802734375 10)"><text x="0" y="0" font-family="Virgil, Segoe UI Emoji" font-size="16px" fill="#000000" text-anchor="start" style="white-space: pre;" direction="ltr" dominant-baseline="text-before-edge">0</text></g><g transform="translate(275.064481181249 53.16720063906223) rotate(0 9.631996154785156 17.88688460840484)"><text x="0" y="0" font-family="Virgil, Segoe UI Emoji" font-size="28px" fill="#000000" text-anchor="start" style="white-space: pre;" direction="ltr" dominant-baseline="text-before-edge">0</text></g><g transform="translate(196.3889389038086 98.60505242490808) rotate(0 2.167999267578125 10)"><text x="0" y="0" font-family="Virgil, Segoe UI Emoji" font-size="16px" fill="#000000" text-anchor="start" style="white-space: pre;" direction="ltr" dominant-baseline="text-before-edge">1</text></g><g transform="translate(154.6350326538086 54.74393223559173) rotate(0 3.7939987182617188 17.88688460840484)"><text x="0" y="0" font-family="Virgil, Segoe UI Emoji" font-size="28px" fill="#000000" text-anchor="start" style="white-space: pre;" direction="ltr" dominant-baseline="text-before-edge">1</text></g><g transform="translate(203.4553451538086 159.27127598559173) rotate(0 4.5919952392578125 17.88688460840484)"><text x="0" y="0" font-family="Virgil, Segoe UI Emoji" font-size="28px" fill="#000000" text-anchor="start" style="white-space: pre;" direction="ltr" dominant-baseline="text-before-edge">j</text></g><g transform="translate(233.85338956017586 98.60505242490808) rotate(0 5.6959991455078125 10)"><text x="0" y="0" font-family="Virgil, Segoe UI Emoji" font-size="16px" fill="#000000" text-anchor="start" style="white-space: pre;" direction="ltr" dominant-baseline="text-before-edge">2</text></g><g transform="translate(400.99792081017586 51.94315098559173) rotate(0 9.967994689941406 17.88688460840484)"><text x="0" y="0" font-family="Virgil, Segoe UI Emoji" font-size="28px" fill="#000000" text-anchor="start" style="white-space: pre;" direction="ltr" dominant-baseline="text-before-edge">2</text></g><g transform="translate(275.4395875848304 98.60505242490808) rotate(0 5.447998046875 10)"><text x="0" y="0" font-family="Virgil, Segoe UI Emoji" font-size="16px" fill="#000000" text-anchor="start" style="white-space: pre;" direction="ltr" dominant-baseline="text-before-edge">3</text></g><g transform="translate(525.9981813348304 53.04471348559173) rotate(0 9.53399658203125 17.88688460840484)"><text x="0" y="0" font-family="Virgil, Segoe UI Emoji" font-size="28px" fill="#000000" text-anchor="start" style="white-space: pre;" direction="ltr" dominant-baseline="text-before-edge">3</text></g><g transform="translate(317.621520471087 98.60505242490808) rotate(0 5.1199951171875 10)"><text x="0" y="0" font-family="Virgil, Segoe UI Emoji" font-size="16px" fill="#000000" text-anchor="start" style="white-space: pre;" direction="ltr" dominant-baseline="text-before-edge">4</text></g><g transform="translate(190.67230172108702 55.49783848559173) rotate(0 8.959999084472656 17.88688460840484)"><text x="0" y="0" font-family="Virgil, Segoe UI Emoji" font-size="28px" fill="#000000" text-anchor="start" style="white-space: pre;" direction="ltr" dominant-baseline="text-before-edge">4</text></g><g transform="translate(359.20771849573157 98.60505242490808) rotate(0 4.943992614746094 10)"><text x="0" y="0" font-family="Virgil, Segoe UI Emoji" font-size="16px" fill="#000000" text-anchor="start" style="white-space: pre;" direction="ltr" dominant-baseline="text-before-edge">5</text></g><g transform="translate(357.70771849573157 50.82205723559173) rotate(0 8.652000427246094 17.88688460840484)"><text x="0" y="0" font-family="Virgil, Segoe UI Emoji" font-size="28px" fill="#000000" text-anchor="start" style="white-space: pre;" direction="ltr" dominant-baseline="text-before-edge">5</text></g><g transform="translate(400.41413913705674 98.60505242490808) rotate(0 5.1199951171875 10)"><text x="0" y="0" font-family="Virgil, Segoe UI Emoji" font-size="16px" fill="#000000" text-anchor="start" style="white-space: pre;" direction="ltr" dominant-baseline="text-before-edge">6</text></g><g transform="translate(482.14460788705674 53.73611973559173) rotate(0 8.959999084472656 17.88688460840484)"><text x="0" y="0" font-family="Virgil, Segoe UI Emoji" font-size="28px" fill="#000000" text-anchor="start" style="white-space: pre;" direction="ltr" dominant-baseline="text-before-edge">6</text></g><g transform="translate(442.7598919283746 98.60505242490808) rotate(0 4.303993225097656 10)"><text x="0" y="0" font-family="Virgil, Segoe UI Emoji" font-size="16px" fill="#000000" text-anchor="start" style="white-space: pre;" direction="ltr" dominant-baseline="text-before-edge">7</text></g><g transform="translate(235.7091106783746 55.38455723559173) rotate(0 7.5319976806640625 17.88688460840484)"><text x="0" y="0" font-family="Virgil, Segoe UI Emoji" font-size="28px" fill="#000000" text-anchor="start" style="white-space: pre;" direction="ltr" dominant-baseline="text-before-edge">7</text></g><g transform="translate(481.2557333131708 98.60505242490808) rotate(0 6.1199951171875 10)"><text x="0" y="0" font-family="Virgil, Segoe UI Emoji" font-size="16px" fill="#000000" text-anchor="start" style="white-space: pre;" direction="ltr" dominant-baseline="text-before-edge">8</text></g><g transform="translate(313.0447958131708 53.568150985591615) rotate(0 10.709999084472656 17.88688460840484)"><text x="0" y="0" font-family="Virgil, Segoe UI Emoji" font-size="28px" fill="#000000" text-anchor="start" style="white-space: pre;" direction="ltr" dominant-baseline="text-before-edge">8</text></g><g transform="translate(524.1711521794814 98.60505242490808) rotate(0 4.8719940185546875 10)"><text x="0" y="0" font-family="Virgil, Segoe UI Emoji" font-size="16px" fill="#000000" text-anchor="start" style="white-space: pre;" direction="ltr" dominant-baseline="text-before-edge">9</text></g><g transform="translate(438.8859959294814 52.34940098559173) rotate(0 8.525993347167969 17.88688460840484)"><text x="0" y="0" font-family="Virgil, Segoe UI Emoji" font-size="28px" fill="#000000" text-anchor="start" style="white-space: pre;" direction="ltr" dominant-baseline="text-before-edge">9</text></g><g stroke-linecap="round"><g transform="translate(206.3015207769243 158.27127598559196) rotate(0 -1.2389078215474854 -16.363260241109344)"><path d="M-0.49 -0.32 C-0.89 -5.66, -2 -27.09, -2.39 -32.51 M1.45 -1.53 C0.9 -7.22, -2.42 -29.51, -3.29 -34.52" stroke="#1e1e1e" stroke-width="2" fill="none"></path></g><g transform="translate(206.3015207769243 158.27127598559196) rotate(0 -1.2389078215474854 -16.363260241109344)"><path d="M4.22 -20.03 C2.63 -24.95, -0.19 -27.93, -3.48 -33.64 M3.87 -19.92 C3.18 -23.93, 0.84 -26.7, -2.94 -34.05" stroke="#1e1e1e" stroke-width="2" fill="none"></path></g><g transform="translate(206.3015207769243 158.27127598559196) rotate(0 -1.2389078215474854 -16.363260241109344)"><path d="M-6.87 -18.29 C-5.12 -23.68, -4.62 -27.19, -3.48 -33.64 M-7.22 -18.17 C-5.38 -22.65, -5.21 -25.81, -2.94 -34.05" stroke="#1e1e1e" stroke-width="2" fill="none"></path></g></g><mask></mask><g stroke-linecap="round"><g transform="translate(204.30662090933674 34.72850465676936) rotate(0.2010387039565139 -21.837844761201552 -9.75183873649911)"><path d="M1.06 1.46 C-2.59 -2.32, -12.23 -21.12, -19.28 -20.71 C-26.32 -20.29, -37.07 -0.31, -41.21 3.96 M-1.8 -0.21 C-5.92 -4.96, -14 -24.59, -20.64 -24.73 C-27.29 -24.87, -37.83 -5.17, -41.68 -1.05" stroke="#1e1e1e" stroke-width="2" fill="none"></path></g><g transform="translate(204.30662090933674 34.72850465676936) rotate(0.2010387039565139 -21.837844761201552 -9.75183873649911)"><path d="M-35.28 -15.57 C-36.44 -8, -39.31 -5.06, -39.32 -3.08 M-38.05 -17.35 C-37.12 -11.73, -40.1 -6.91, -42.04 -0.81" stroke="#1e1e1e" stroke-width="2" fill="none"></path></g><g transform="translate(204.30662090933674 34.72850465676936) rotate(0.2010387039565139 -21.837844761201552 -9.75183873649911)"><path d="M-25.77 -8.75 C-30.76 -3.79, -37.38 -3.53, -39.32 -3.08 M-28.54 -10.53 C-30.4 -6.97, -36.15 -4.14, -42.04 -0.81" stroke="#1e1e1e" stroke-width="2" fill="none"></path></g></g><mask></mask><g stroke-linecap="round"><g transform="translate(156.34278728685285 127.06138504240107) rotate(0.2010387039565139 20.205919768355386 12.350709240334709)"><path d="M0.94 1.89 C4.49 6.55, 12.12 27.2, 19.07 26.38 C26.03 25.56, 39.35 1.63, 42.67 -3.04 M-2 0.45 C1.51 4.4, 10.28 22.36, 17.62 22.06 C24.97 21.76, 38.56 2.27, 42.08 -1.35" stroke="#1e1e1e" stroke-width="2" fill="none"></path></g><g transform="translate(156.34278728685285 127.06138504240107) rotate(0.2010387039565139 20.205919768355386 12.350709240334709)"><path d="M38.66 16.55 C39.34 13.94, 35.85 5.87, 40.64 -0.28 M34.72 15.97 C37.21 12.8, 38.18 7.25, 42.01 -0.4" stroke="#1e1e1e" stroke-width="2" fill="none"></path></g><g transform="translate(156.34278728685285 127.06138504240107) rotate(0.2010387039565139 20.205919768355386 12.350709240334709)"><path d="M29.63 9.09 C32.22 8.07, 30.72 1.64, 40.64 -0.28 M25.7 8.51 C30.06 7.08, 32.93 3.1, 42.01 -0.4" stroke="#1e1e1e" stroke-width="2" fill="none"></path></g></g><mask></mask><g transform="translate(10 52.75191059399663) rotate(0 38.05198669433594 17.5)"><text x="0" y="0" font-family="Virgil, Segoe UI Emoji" font-size="28px" fill="#1e1e1e" text-anchor="start" style="white-space: pre;" direction="ltr" dominant-baseline="text-before-edge">troca</text></g></svg>