<svg version="1.1" xmlns="http://www.w3.org/2000/svg" viewBox="0 0 261.2152777777778 670.8541666666666" width="261.2152777777778" height="670.8541666666666">
  <!-- svg-source:excalidraw -->
  
  <defs>
    <style class="style-fonts">
      @font-face {
        font-family: "Virgil";
        src: url("https://excalidraw.com/Virgil.woff2");
      }
      @font-face {
        font-family: "Cascadia";
        src: url("https://excalidraw.com/Cascadia.woff2");
      }
      @font-face {
        font-family: "Assistant";
        src: url("https://excalidraw.com/Assistant-Regular.woff2");
      }
    </style>
    
  </defs>
  <g transform="translate(94.58522542317678 10) rotate(0 33.821990966796875 22.5)"><text x="0" y="0" font-family="Virgil, Segoe UI Emoji" font-size="36px" fill="#1e1e1e" text-anchor="start" style="white-space: pre;" direction="ltr" dominant-baseline="text-before-edge">OSI</text></g><g stroke-linecap="round" transform="translate(10 97.0868055555556) rotate(0 120.60763888888891 33.65668402777774)"><path d="M16.83 0 C70.66 0.51, 126.2 -0.6, 224.39 0 C236.02 -0.32, 241.52 3.23, 241.22 16.83 C244.48 23.88, 244.48 31.19, 241.22 50.49 C238.25 61.01, 234.53 66.5, 224.39 67.31 C153.13 67.11, 76.77 65.53, 16.83 67.31 C3.02 67.58, 0.92 62.24, 0 50.49 C-2.13 40.3, -1.84 30.38, 0 16.83 C3.03 7.19, 5.58 0.66, 16.83 0" stroke="none" stroke-width="0" fill="#ffffff"></path><path d="M16.83 0 C63.76 0.09, 107.24 0.97, 224.39 0 M16.83 0 C72.07 -0.76, 127.91 -0.74, 224.39 0 M224.39 0 C234.86 1.01, 240.4 3.86, 241.22 16.83 M224.39 0 C233.35 1.41, 239.2 4.19, 241.22 16.83 M241.22 16.83 C239.39 28.21, 240.02 39.56, 241.22 50.49 M241.22 16.83 C240.41 24.59, 240.6 30.44, 241.22 50.49 M241.22 50.49 C239.27 62.67, 236.13 66.23, 224.39 67.31 M241.22 50.49 C239.54 61.34, 234.34 66.06, 224.39 67.31 M224.39 67.31 C168.82 67.75, 113.24 68.6, 16.83 67.31 M224.39 67.31 C162.03 66.46, 98.15 66.83, 16.83 67.31 M16.83 67.31 C7.14 68.27, 0.58 62.72, 0 50.49 M16.83 67.31 C5.79 67.71, -0.59 59.75, 0 50.49 M0 50.49 C-0.95 42.15, -0.44 33.35, 0 16.83 M0 50.49 C0.7 39.79, -0.15 26.74, 0 16.83 M0 16.83 C-1.14 4.85, 3.65 1.2, 16.83 0 M0 16.83 C2.08 3.92, 5.48 1.43, 16.83 0" stroke="#343a40" stroke-width="1" fill="none"></path></g><g transform="translate(67.2856631808811 113.52690972222211) rotate(0 63.32197570800781 17.5)"><text x="0" y="0" font-family="Virgil, Segoe UI Emoji" font-size="28px" fill="#1e1e1e" text-anchor="start" style="white-space: pre;" direction="ltr" dominant-baseline="text-before-edge">Aplicação</text></g><g stroke-linecap="round" transform="translate(10 176.8524305555556) rotate(0 120.60763888888891 33.65668402777774)"><path d="M16.83 0 C72.65 -2.36, 131.05 2.03, 224.39 0 C237.43 -3.19, 241.57 4.23, 241.22 16.83 C241.83 27.87, 238.09 40.59, 241.22 50.49 C239.94 59.69, 237.7 67.89, 224.39 67.31 C175.22 65.79, 126.5 64.49, 16.83 67.31 C3.18 65.05, -1.02 59, 0 50.49 C3.52 40.7, -2.84 38.24, 0 16.83 C0.99 5.36, 9.07 -3.26, 16.83 0" stroke="none" stroke-width="0" fill="#ffffff"></path><path d="M16.83 0 C62.84 0.28, 107.37 1.32, 224.39 0 M16.83 0 C83.07 -1.1, 148.75 -1.55, 224.39 0 M224.39 0 C235.15 -1.83, 242.52 6.78, 241.22 16.83 M224.39 0 C235.84 1.6, 239.46 4.63, 241.22 16.83 M241.22 16.83 C242.28 26.76, 241.44 35.94, 241.22 50.49 M241.22 16.83 C241.23 30.25, 242.33 41.43, 241.22 50.49 M241.22 50.49 C242.12 62.08, 234.64 67.84, 224.39 67.31 M241.22 50.49 C242.86 63.52, 233.34 67.66, 224.39 67.31 M224.39 67.31 C144.9 66.71, 62.51 67.3, 16.83 67.31 M224.39 67.31 C163.52 68.58, 101.41 68.79, 16.83 67.31 M16.83 67.31 C5.86 66.84, 0.69 63.06, 0 50.49 M16.83 67.31 C4.87 66.93, -0.1 60.13, 0 50.49 M0 50.49 C-1.98 36.86, -0.64 27.34, 0 16.83 M0 50.49 C-0.92 37.51, -0.17 25.05, 0 16.83 M0 16.83 C1.96 6.62, 6.64 -0.41, 16.83 0 M0 16.83 C-0.27 6.13, 5.22 0.14, 16.83 0" stroke="#343a40" stroke-width="1" fill="none"></path></g><g transform="translate(37.6756778293186 193.29253472222211) rotate(0 92.93196105957031 17.5)"><text x="0" y="0" font-family="Virgil, Segoe UI Emoji" font-size="28px" fill="#1e1e1e" text-anchor="start" style="white-space: pre;" direction="ltr" dominant-baseline="text-before-edge">Apresentação</text></g><g stroke-linecap="round" transform="translate(10 256.7092013888889) rotate(0 120.60763888888891 33.656684027777715)"><path d="M16.83 0 C78.58 1.5, 140.45 -1.33, 224.39 0 C237.04 1.78, 242.47 5.2, 241.22 16.83 C239.82 27.64, 241.59 36.94, 241.22 50.49 C237.74 58.26, 232.5 68.22, 224.39 67.31 C147.75 62.92, 66.34 63.89, 16.83 67.31 C4.1 66.81, 2.51 63.01, 0 50.49 C-1.87 42.07, -2.68 35.28, 0 16.83 C-3.52 2.32, 2.54 0.21, 16.83 0" stroke="none" stroke-width="0" fill="#ffffff"></path><path d="M16.83 0 C65.13 -1.19, 115.06 -1.54, 224.39 0 M16.83 0 C71.97 1.85, 127.64 1.24, 224.39 0 M224.39 0 C237.22 -1.5, 239.31 3.64, 241.22 16.83 M224.39 0 C236.2 -2.26, 241.97 5.63, 241.22 16.83 M241.22 16.83 C241.3 29.65, 240.25 43.62, 241.22 50.49 M241.22 16.83 C241.28 28.26, 242.17 38.97, 241.22 50.49 M241.22 50.49 C242.16 60.25, 235.73 67.9, 224.39 67.31 M241.22 50.49 C239.94 59.98, 235.85 65.9, 224.39 67.31 M224.39 67.31 C155.44 66.49, 89.7 65.86, 16.83 67.31 M224.39 67.31 C142.17 65.17, 58.22 65.38, 16.83 67.31 M16.83 67.31 C5.33 65.61, -0.29 61.65, 0 50.49 M16.83 67.31 C3.61 65.33, -0.49 61.36, 0 50.49 M0 50.49 C-0.07 38.43, -0.81 24.06, 0 16.83 M0 50.49 C-0.62 37.65, 0.22 25.42, 0 16.83 M0 16.83 C1.72 5.61, 4.12 1.41, 16.83 0 M0 16.83 C-1.36 5.66, 5.8 -0.99, 16.83 0" stroke="#343a40" stroke-width="1" fill="none"></path></g><g transform="translate(82.13965945773657 273.14930555555543) rotate(0 48.467979431152344 17.5)"><text x="0" y="0" font-family="Virgil, Segoe UI Emoji" font-size="28px" fill="#1e1e1e" text-anchor="start" style="white-space: pre;" direction="ltr" dominant-baseline="text-before-edge">Sessão</text></g><g stroke-linecap="round" transform="translate(10 333.1545138888889) rotate(0 120.60763888888891 33.656684027777715)"><path d="M16.83 0 C83.04 -0.46, 148.47 2.71, 224.39 0 C235.29 0.31, 238.84 3.71, 241.22 16.83 C239.67 28.97, 238.66 31.08, 241.22 50.49 C240.52 60.63, 234.79 69.1, 224.39 67.31 C183.8 66.15, 140.47 66.36, 16.83 67.31 C5.87 68.23, 0.53 61.02, 0 50.49 C-1.25 39.2, -1.71 34.9, 0 16.83 C1.58 5.58, 6.27 -2.74, 16.83 0" stroke="none" stroke-width="0" fill="#ffffff"></path><path d="M16.83 0 C79.91 -2.28, 143.98 -1.85, 224.39 0 M16.83 0 C77.83 0.61, 138.51 0.23, 224.39 0 M224.39 0 C236.61 -0.82, 239.47 3.65, 241.22 16.83 M224.39 0 C237.01 -2.01, 239.8 6.87, 241.22 16.83 M241.22 16.83 C240.54 23.23, 239.96 29.61, 241.22 50.49 M241.22 16.83 C242.31 26.1, 241.15 35.58, 241.22 50.49 M241.22 50.49 C242.18 62.23, 234.52 65.86, 224.39 67.31 M241.22 50.49 C240.85 60.44, 234.35 66.65, 224.39 67.31 M224.39 67.31 C145.8 69.53, 67.23 68.12, 16.83 67.31 M224.39 67.31 C182.09 67.51, 140.27 68.87, 16.83 67.31 M16.83 67.31 C6.57 67.89, 1.02 61.86, 0 50.49 M16.83 67.31 C6.01 66.73, -1.95 60.6, 0 50.49 M0 50.49 C-0.03 39.23, -0.34 29.64, 0 16.83 M0 50.49 C0.66 41.54, -0.7 32.63, 0 16.83 M0 16.83 C-0.76 3.65, 6.81 1.81, 16.83 0 M0 16.83 C-1.69 5.48, 7.04 -0.68, 16.83 0" stroke="#343a40" stroke-width="1" fill="none"></path></g><g transform="translate(53.60767703586157 349.59461805555543) rotate(0 76.99996185302734 17.5)"><text x="0" y="0" font-family="Virgil, Segoe UI Emoji" font-size="28px" fill="#1e1e1e" text-anchor="start" style="white-space: pre;" direction="ltr" dominant-baseline="text-before-edge">Transporte</text></g><g stroke-linecap="round" transform="translate(10 413.0503472222223) rotate(0 120.60763888888891 33.656684027777715)"><path d="M16.83 0 C93.01 2.75, 163.5 2.87, 224.39 0 C235.39 -0.16, 243.7 4.86, 241.22 16.83 C240.05 21.05, 238.44 27.32, 241.22 50.49 C242.04 60.96, 238.82 67.17, 224.39 67.31 C154.86 64.88, 85.42 67.4, 16.83 67.31 C3.41 66.61, -1.17 58.88, 0 50.49 C-1.36 42.91, 1.66 28.03, 0 16.83 C0.51 6.36, 5.52 2.46, 16.83 0" stroke="none" stroke-width="0" fill="#ffffff"></path><path d="M16.83 0 C80.47 0.12, 145.34 -0.32, 224.39 0 M16.83 0 C73.42 -0.43, 129.33 0.1, 224.39 0 M224.39 0 C237.17 0.86, 239.47 4.52, 241.22 16.83 M224.39 0 C237.9 0.27, 240.24 7.8, 241.22 16.83 M241.22 16.83 C239.43 28.51, 240.99 42.19, 241.22 50.49 M241.22 16.83 C240.48 25.26, 242.29 31.24, 241.22 50.49 M241.22 50.49 C239.68 61.86, 235.92 65.7, 224.39 67.31 M241.22 50.49 C240.52 59.58, 236.18 65.3, 224.39 67.31 M224.39 67.31 C166.04 69.38, 107.84 67.72, 16.83 67.31 M224.39 67.31 C149.04 65.5, 73.65 65.32, 16.83 67.31 M16.83 67.31 C4.6 65.5, 0.63 60.03, 0 50.49 M16.83 67.31 C4.16 67.2, -1.6 59.85, 0 50.49 M0 50.49 C1.53 37.03, 0.14 27.89, 0 16.83 M0 50.49 C0.07 43.65, -0.86 36.67, 0 16.83 M0 16.83 C-1.23 7.35, 7.54 -0.7, 16.83 0 M0 16.83 C-1.65 3.52, 3.88 -0.62, 16.83 0" stroke="#343a40" stroke-width="1" fill="none"></path></g><g transform="translate(97.83365207248266 429.4904513888888) rotate(0 32.77398681640625 17.5)"><text x="0" y="0" font-family="Virgil, Segoe UI Emoji" font-size="28px" fill="#1e1e1e" text-anchor="start" style="white-space: pre;" direction="ltr" dominant-baseline="text-before-edge">Rede</text></g><g stroke-linecap="round" transform="translate(10 503.584201388889) rotate(0 120.60763888888891 33.656684027777715)"><path d="M16.83 0 C70.92 -1.1, 130.97 0.08, 224.39 0 C235.91 -2.38, 239.32 4.02, 241.22 16.83 C245.35 23.13, 238.85 33.3, 241.22 50.49 C240.14 60.89, 237.39 63.75, 224.39 67.31 C168.19 68.11, 114.72 68.76, 16.83 67.31 C6.53 67.85, -0.68 60.86, 0 50.49 C-1.6 36.29, 3.41 26.04, 0 16.83 C-0.03 6.27, 2.87 -2.47, 16.83 0" stroke="none" stroke-width="0" fill="#ffffff"></path><path d="M16.83 0 C75.71 0.89, 136.03 -0.01, 224.39 0 M16.83 0 C91.6 -0.34, 165.94 -0.26, 224.39 0 M224.39 0 C234.79 -1.75, 239.26 6.83, 241.22 16.83 M224.39 0 C233.6 -1.42, 242.47 3.71, 241.22 16.83 M241.22 16.83 C240.04 24.55, 239.12 34.4, 241.22 50.49 M241.22 16.83 C240.36 29.81, 239.98 44.07, 241.22 50.49 M241.22 50.49 C241.74 60.62, 234.15 67, 224.39 67.31 M241.22 50.49 C239.95 60.45, 234.94 69.21, 224.39 67.31 M224.39 67.31 C168.05 69.86, 108.85 66.47, 16.83 67.31 M224.39 67.31 C169.94 67.37, 117.52 67.53, 16.83 67.31 M16.83 67.31 C6.19 68.33, 0.15 62.05, 0 50.49 M16.83 67.31 C5.02 65.36, -1.1 62.25, 0 50.49 M0 50.49 C-0.21 38.44, 1.09 25.87, 0 16.83 M0 50.49 C-0.49 36.74, -0.76 23.37, 0 16.83 M0 16.83 C-1.96 6.81, 7.42 -1.47, 16.83 0 M0 16.83 C-0.13 7.04, 4.92 0.47, 16.83 0" stroke="#343a40" stroke-width="1" fill="none"></path></g><g transform="translate(86.9276538425022 520.0243055555555) rotate(0 43.67998504638672 17.5)"><text x="0" y="0" font-family="Virgil, Segoe UI Emoji" font-size="28px" fill="#1e1e1e" text-anchor="start" style="white-space: pre;" direction="ltr" dominant-baseline="text-before-edge">Enlace</text></g><g stroke-linecap="round" transform="translate(10 593.5407986111112) rotate(0 120.60763888888891 33.656684027777715)"><path d="M16.83 0 C62.99 3.27, 111.79 3.18, 224.39 0 C233.23 -1.9, 239.62 3.99, 241.22 16.83 C238.72 27.26, 240.3 42.55, 241.22 50.49 C240.4 63.49, 232.05 65.82, 224.39 67.31 C153.29 62.41, 83.25 65.52, 16.83 67.31 C6.14 66.63, -0.84 64.82, 0 50.49 C-1.06 45.55, 1.7 34.51, 0 16.83 C0.66 2.87, 3.14 0.41, 16.83 0" stroke="none" stroke-width="0" fill="#ffffff"></path><path d="M16.83 0 C94.22 0.47, 169.94 2.11, 224.39 0 M16.83 0 C73.14 -0.44, 129.17 -0.47, 224.39 0 M224.39 0 C233.86 -1.96, 242.44 3.86, 241.22 16.83 M224.39 0 C234.19 1.26, 239.31 4.76, 241.22 16.83 M241.22 16.83 C239.99 22.48, 240.98 33.77, 241.22 50.49 M241.22 16.83 C241.07 23.32, 241.96 32.02, 241.22 50.49 M241.22 50.49 C240.13 60.25, 235.29 66.21, 224.39 67.31 M241.22 50.49 C239.96 61.04, 237.51 66.82, 224.39 67.31 M224.39 67.31 C155.26 68.87, 81.05 68.1, 16.83 67.31 M224.39 67.31 C152.5 66.59, 80.49 66.17, 16.83 67.31 M16.83 67.31 C6.63 67.47, 0.35 61.19, 0 50.49 M16.83 67.31 C3.66 66.21, 0.55 62.92, 0 50.49 M0 50.49 C-0.19 42.8, -0.89 35.16, 0 16.83 M0 50.49 C-0.71 37.96, -0.71 25.6, 0 16.83 M0 16.83 C1.2 7.42, 4.14 -0.11, 16.83 0 M0 16.83 C1.43 4.92, 6.08 -0.6, 16.83 0" stroke="#343a40" stroke-width="1" fill="none"></path></g><g transform="translate(91.14165835910376 609.9809027777777) rotate(0 39.465980529785156 17.5)"><text x="0" y="0" font-family="Virgil, Segoe UI Emoji" font-size="28px" fill="#1e1e1e" text-anchor="start" style="white-space: pre;" direction="ltr" dominant-baseline="text-before-edge">Física</text></g></svg>