<svg version="1.1" xmlns="http://www.w3.org/2000/svg" viewBox="0 0 627.6558113459679 90.70566856934681" width="1255.3116226919358" height="181.41133713869363">
  <!-- svg-source:excalidraw -->
  
  <defs>
    <style class="style-fonts">
      @font-face {
        font-family: "Virgil";
        src: url("https://excalidraw.com/Virgil.woff2");
      }
      @font-face {
        font-family: "Cascadia";
        src: url("https://excalidraw.com/Cascadia.woff2");
      }
      @font-face {
        font-family: "Assistant";
        src: url("https://excalidraw.com/Assistant-Regular.woff2");
      }
    </style>
    
  </defs>
  <rect x="0" y="0" width="627.6558113459679" height="90.70566856934681" fill="#ffffff"></rect><g stroke-linecap="round" transform="translate(204.04276033765655 10) rotate(0 20.698154666493878 21.915693176287633)"><path d="M1.26 1.67 C8.99 -0.07, 20.7 -0.9, 41.95 1.38 M0.97 0.8 C14.87 -1.04, 30.95 0.35, 40.61 -0.22 M39.97 -0.34 C39.65 15.33, 43 32.54, 39.78 42.4 M41.51 0.91 C41.91 13.15, 42.07 26.89, 41.69 44.8 M40.05 43.47 C23.77 43.75, 10.11 44.38, 0.03 43.86 M40.87 42.94 C26.7 44.33, 13.01 43.07, -0.69 44.56 M0.9 43.32 C0.51 30.08, -1.21 19.7, 0.74 -0.42 M-0.34 43.17 C-0.65 28.07, 1.17 11.07, 0 0.73" stroke="#000000" stroke-width="2" fill="none"></path></g><g stroke-linecap="round" transform="translate(245.43906967063594 10) rotate(0 20.698154666493878 21.915693176287633)"><path d="M-1.46 0.17 C14.66 -1, 30.3 1.04, 42.67 -1.41 M-0.18 -0.67 C16.89 0.39, 31.31 -0.55, 41.97 0.11 M39.6 -0.36 C42.64 15.71, 39.47 27.64, 41.56 44.26 M41.82 -0.36 C42.03 14.24, 41.74 29.7, 42.22 43.31 M39.59 44.06 C32.39 44.62, 22.73 43.79, 0.7 44.55 M40.58 44.16 C26.67 42.53, 12.52 44.19, -0.07 43.09 M0.19 42.92 C-1.73 36.37, 0.54 25.41, 1.38 -1.38 M-0.95 44.24 C1.02 29.04, 0.15 15.82, 0.02 0.72" stroke="#000000" stroke-width="2" fill="none"></path></g><g stroke-linecap="round" transform="translate(286.8911828519904 10) rotate(0 20.698154666493878 21.915693176287633)"><path d="M-0.21 -0.65 C16.43 1.35, 33.03 -1.45, 43.15 1.94 M0.84 0.72 C14.94 0.06, 32.03 0.39, 41.71 -0.71 M42.95 1.18 C39.39 10.97, 41.17 25.23, 41.95 44.06 M41.98 -0.12 C41.88 18.12, 42.4 33.77, 40.65 43.16 M41.74 44.69 C29.75 43.91, 18.76 44.6, 0.81 42.78 M40.77 42.9 C31.98 44.69, 23.87 43.23, -0.95 44.28 M-1.54 45.37 C0.7 31.39, 1.34 18.41, 0.56 -0.69 M0.87 43.41 C0.42 34.31, 0.44 24.05, -0.44 -0.39" stroke="#000000" stroke-width="2" fill="none"></path></g><g stroke-linecap="round" transform="translate(328.2874921849889 10) rotate(0 20.698154666493878 21.915693176287633)"><path d="M0.56 1.38 C14.05 -1.28, 27.31 2.07, 43 -0.37 M-0.79 -0.22 C10.21 -0.18, 19.58 -1.01, 41.22 -0.9 M39.78 -1.43 C41.9 12.8, 42.29 24.97, 43.22 44.68 M41.69 0.97 C42.47 11.07, 40.91 22.51, 41.22 42.93 M41.43 43.86 C29.21 44.73, 16.42 42.96, -1.78 42.19 M40.71 44.56 C27.56 42.71, 12.91 43.9, -0.26 43.93 M0.74 43.41 C1.72 31.31, 0.89 20.86, -1.32 -1.91 M0 44.56 C-0.36 29.61, -0.82 13.57, -0.46 -0.07" stroke="#000000" stroke-width="2" fill="none"></path></g><g stroke-linecap="round" transform="translate(370.08964768789974 10) rotate(0 20.69815466649385 21.915693176287633)"><path d="M1.27 -1.41 C12.82 1.65, 23.73 -0.65, 40.05 1.67 M0.58 0.11 C15.7 -0.62, 30.6 -0.81, 41.22 0.78 M41.56 0.43 C41.6 15.95, 42.87 32.3, 40.69 44.99 M42.22 -0.52 C40.78 11.94, 41.34 24.32, 41.51 44 M42.1 44.55 C28.01 42.79, 11.22 42.2, 0.65 42.57 M41.32 43.09 C31.87 44.59, 23.99 44.23, -0.46 43.06 M1.38 42.45 C0.4 26.63, -1.48 8.89, 0.82 1.75 M0.02 44.55 C-0.44 32.12, -0.46 21.12, -0.52 0.81" stroke="#000000" stroke-width="2" fill="none"></path></g><g stroke-linecap="round" transform="translate(411.4859570208919 10) rotate(0 20.69815466649385 21.915693176287633)"><path d="M1.75 1.94 C16.88 -0.08, 29.22 1.97, 42.83 -1.58 M0.32 -0.71 C11.35 -0.94, 22.86 0.73, 41.98 -0.81 M41.95 0.23 C43.26 10.86, 40.72 21.18, 41.15 44.42 M40.65 -0.67 C41.58 16.51, 41.87 35, 41.83 43.85 M42.21 42.78 C27.13 42.34, 17.08 42.72, -1.86 42.46 M40.45 44.28 C25.71 43.62, 10.08 42.76, 0.77 44.2 M0.56 43.15 C-1.63 29.7, 0.51 21.13, -0.83 0 M-0.44 43.44 C-0.47 27.4, -0.53 11.93, 0.74 -0.71" stroke="#000000" stroke-width="2" fill="none"></path></g><g stroke-linecap="round" transform="translate(452.8822663538822 10) rotate(0 20.69815466649385 21.915693176287633)"><path d="M1.6 -0.37 C8.15 1.27, 20.43 -1.98, 40.96 1.16 M-0.17 -0.9 C12.71 1.07, 26.36 -0.51, 40.68 0.08 M43.22 0.85 C40.81 15.25, 41.27 28.76, 43.34 45.47 M41.22 -0.9 C41.19 11.02, 41.5 21.72, 41.41 44.18 M39.61 42.19 C28.14 42.35, 11.72 42.24, 1.46 43.69 M41.14 43.93 C31.57 43.25, 23.43 44.39, -0.21 44.52 M-1.32 41.92 C0.69 35.45, -0.96 23.56, 1.46 0.04 M-0.46 43.76 C-0.33 28.35, 0.93 10.54, 0.86 0.47" stroke="#000000" stroke-width="2" fill="none"></path></g><g stroke-linecap="round" transform="translate(494.2785756868652 10) rotate(0 20.69815466649385 21.915693176287633)"><path d="M-1.35 1.67 C17.86 -1.5, 32.42 1.23, 41.62 0.63 M-0.18 0.78 C10.06 -0.44, 18.23 0.45, 41.61 0.28 M40.69 1.16 C41.55 14.23, 43.74 28.93, 40.35 42.35 M41.51 0.17 C41.75 10.22, 41.33 20.77, 41.76 44.24 M42.05 42.57 C29.29 42.12, 22.35 43.35, -1.47 41.94 M40.94 43.06 C27.87 44.24, 12.6 44.56, -0.69 44.11 M0.82 45.58 C-0.54 32.18, 1.75 20.58, 1.43 -0.88 M-0.52 44.64 C0.94 31.66, 1.06 21.39, 0.78 0.77" stroke="#000000" stroke-width="2" fill="none"></path></g><g stroke-linecap="round" transform="translate(534.8631926799953 10) rotate(0 20.69815466649385 21.915693176287633)"><path d="M1.43 -1.58 C11.22 0.81, 23.54 0.29, 39.97 -0.34 M0.59 -0.81 C7.99 -0.24, 17.62 -0.05, 41.51 0.91 M41.15 0.59 C43.19 16.65, 40.19 28.53, 40.05 43.47 M41.83 0.02 C41.46 9.54, 41.81 18.77, 40.87 42.94 M39.54 42.46 C33.83 43.43, 21.88 41.68, 0.9 43.32 M42.16 44.2 C28.37 44.2, 15.09 43.79, -0.34 43.17 M-0.83 43.83 C1.28 34.91, 1.25 25.02, -0.77 -0.92 M0.74 43.12 C1.09 31.47, 1.01 18.95, -0.83 0.12" stroke="#000000" stroke-width="2" fill="none"></path></g><g stroke-linecap="round" transform="translate(576.2595020129802 10) rotate(0 20.69815466649385 21.915693176287633)"><path d="M-0.44 1.16 C16.11 0.96, 30.35 -0.02, 39.6 -0.36 M-0.72 0.08 C15.86 0.61, 31.4 1.25, 41.82 -0.36 M43.34 1.64 C40.29 14.21, 40 31.04, 39.59 44.06 M41.41 0.35 C41.94 14.31, 41.06 26.92, 40.58 44.16 M42.85 43.69 C30.12 41.65, 22.69 43.03, 0.19 42.92 M41.19 44.52 C31.47 44.26, 22.57 43.32, -0.95 44.24 M1.46 43.87 C1.62 25.97, -0.59 8.96, -0.15 -1.05 M0.86 44.3 C0.46 27.9, -1.15 10.56, -0.32 -0.78" stroke="#000000" stroke-width="2" fill="none"></path></g><g transform="translate(215.814481181249 60.70566856934681) rotate(0 5.503997802734375 10)"><text x="0" y="0" font-family="Virgil, Segoe UI Emoji" font-size="16px" fill="#000000" text-anchor="start" style="white-space: pre;" direction="ltr" dominant-baseline="text-before-edge">0</text></g><g transform="translate(340.111356181249 15.15704838003046) rotate(0 9.631996154785156 17.886884608404813)"><text x="0" y="0" font-family="Virgil, Segoe UI Emoji" font-size="28px" fill="#000000" text-anchor="start" style="white-space: pre;" direction="ltr" dominant-baseline="text-before-edge">0</text></g><g transform="translate(261.4358139038086 60.594900165876254) rotate(0 2.167999267578125 10)"><text x="0" y="0" font-family="Virgil, Segoe UI Emoji" font-size="16px" fill="#000000" text-anchor="start" style="white-space: pre;" direction="ltr" dominant-baseline="text-before-edge">1</text></g><g transform="translate(261.2756576538086 15.276748726559958) rotate(0 3.7939987182617188 17.88688460840484)"><text x="0" y="0" font-family="Virgil, Segoe UI Emoji" font-size="28px" fill="#000000" text-anchor="start" style="white-space: pre;" direction="ltr" dominant-baseline="text-before-edge">1</text></g><g transform="translate(164.2522201538086 17.28456122655996) rotate(0 7.321998596191406 17.88688460840484)"><text x="0" y="0" font-family="Virgil, Segoe UI Emoji" font-size="28px" fill="#000000" text-anchor="start" style="white-space: pre;" direction="ltr" dominant-baseline="text-before-edge">v</text></g><g transform="translate(298.90026456017586 60.59490016587631) rotate(0 5.6959991455078125 10)"><text x="0" y="0" font-family="Virgil, Segoe UI Emoji" font-size="16px" fill="#000000" text-anchor="start" style="white-space: pre;" direction="ltr" dominant-baseline="text-before-edge">2</text></g><g transform="translate(466.04479581017586 13.932998726559958) rotate(0 9.967994689941406 17.886884608404813)"><text x="0" y="0" font-family="Virgil, Segoe UI Emoji" font-size="28px" fill="#000000" text-anchor="start" style="white-space: pre;" direction="ltr" dominant-baseline="text-before-edge">2</text></g><g transform="translate(340.4864625848304 60.594900165876254) rotate(0 5.447998046875 10)"><text x="0" y="0" font-family="Virgil, Segoe UI Emoji" font-size="16px" fill="#000000" text-anchor="start" style="white-space: pre;" direction="ltr" dominant-baseline="text-before-edge">3</text></g><g transform="translate(591.0450563348304 15.034561226559958) rotate(0 9.53399658203125 17.886884608404827)"><text x="0" y="0" font-family="Virgil, Segoe UI Emoji" font-size="28px" fill="#000000" text-anchor="start" style="white-space: pre;" direction="ltr" dominant-baseline="text-before-edge">3</text></g><g transform="translate(382.668395471087 60.59490016587631) rotate(0 5.1199951171875 10)"><text x="0" y="0" font-family="Virgil, Segoe UI Emoji" font-size="16px" fill="#000000" text-anchor="start" style="white-space: pre;" direction="ltr" dominant-baseline="text-before-edge">4</text></g><g transform="translate(213.11761422108702 16.40565497655996) rotate(0 8.959999084472656 17.886884608404827)"><text x="0" y="0" font-family="Virgil, Segoe UI Emoji" font-size="28px" fill="#000000" text-anchor="start" style="white-space: pre;" direction="ltr" dominant-baseline="text-before-edge">4</text></g><g transform="translate(424.25459349573157 60.594900165876254) rotate(0 4.943992614746094 10)"><text x="0" y="0" font-family="Virgil, Segoe UI Emoji" font-size="16px" fill="#000000" text-anchor="start" style="white-space: pre;" direction="ltr" dominant-baseline="text-before-edge">5</text></g><g transform="translate(422.75459349573157 12.811904976559958) rotate(0 8.652000427246094 17.88688460840484)"><text x="0" y="0" font-family="Virgil, Segoe UI Emoji" font-size="28px" fill="#000000" text-anchor="start" style="white-space: pre;" direction="ltr" dominant-baseline="text-before-edge">5</text></g><g transform="translate(465.46101413705674 60.59490016587631) rotate(0 5.1199951171875 10)"><text x="0" y="0" font-family="Virgil, Segoe UI Emoji" font-size="16px" fill="#000000" text-anchor="start" style="white-space: pre;" direction="ltr" dominant-baseline="text-before-edge">6</text></g><g transform="translate(547.1914828870567 15.725967476559958) rotate(0 8.959999084472656 17.886884608404827)"><text x="0" y="0" font-family="Virgil, Segoe UI Emoji" font-size="28px" fill="#000000" text-anchor="start" style="white-space: pre;" direction="ltr" dominant-baseline="text-before-edge">6</text></g><g transform="translate(507.8067669283746 60.59490016587631) rotate(0 4.303993225097656 10)"><text x="0" y="0" font-family="Virgil, Segoe UI Emoji" font-size="16px" fill="#000000" text-anchor="start" style="white-space: pre;" direction="ltr" dominant-baseline="text-before-edge">7</text></g><g transform="translate(300.7559856783746 17.37440497655996) rotate(0 7.5319976806640625 17.886884608404813)"><text x="0" y="0" font-family="Virgil, Segoe UI Emoji" font-size="28px" fill="#000000" text-anchor="start" style="white-space: pre;" direction="ltr" dominant-baseline="text-before-edge">7</text></g><g transform="translate(546.3026083131708 60.594900165876254) rotate(0 6.1199951171875 10)"><text x="0" y="0" font-family="Virgil, Segoe UI Emoji" font-size="16px" fill="#000000" text-anchor="start" style="white-space: pre;" direction="ltr" dominant-baseline="text-before-edge">8</text></g><g transform="translate(378.0916708131708 15.557998726559845) rotate(0 10.709999084472656 17.886884608404856)"><text x="0" y="0" font-family="Virgil, Segoe UI Emoji" font-size="28px" fill="#000000" text-anchor="start" style="white-space: pre;" direction="ltr" dominant-baseline="text-before-edge">8</text></g><g transform="translate(589.2180271794814 60.59490016587631) rotate(0 4.8719940185546875 10)"><text x="0" y="0" font-family="Virgil, Segoe UI Emoji" font-size="16px" fill="#000000" text-anchor="start" style="white-space: pre;" direction="ltr" dominant-baseline="text-before-edge">9</text></g><g transform="translate(503.9328709294814 14.339248726559958) rotate(0 8.525993347167969 17.886884608404827)"><text x="0" y="0" font-family="Virgil, Segoe UI Emoji" font-size="28px" fill="#000000" text-anchor="start" style="white-space: pre;" direction="ltr" dominant-baseline="text-before-edge">9</text></g><g transform="translate(10 16.3237895849648) rotate(0 54.767974853515625 17.5)"><text x="0" y="0" font-family="Virgil, Segoe UI Emoji" font-size="28px" fill="#1e1e1e" text-anchor="start" style="white-space: pre;" direction="ltr" dominant-baseline="text-before-edge">entrada</text></g></svg>